<?xml version="1.0" encoding="UTF-8" standalone="no"?><!DOCTYPE svg PUBLIC "-//W3C//DTD SVG 1.1//EN" "http://www.w3.org/Graphics/SVG/1.1/DTD/svg11.dtd"><svg width="100%" height="100%" viewBox="0 0 135 84" version="1.1" xmlns="http://www.w3.org/2000/svg" xmlns:xlink="http://www.w3.org/1999/xlink" xml:space="preserve" xmlns:serif="http://www.serif.com/" style="fill-rule:evenodd;clip-rule:evenodd;stroke-linejoin:round;stroke-miterlimit:2;"><rect id="icon" x="0" y="0" width="135" height="84" style="fill:none;"/><g id="Layer-1" serif:id="Layer 1"></g><path d="M54.8,24.492c0,5.206 0.015,9.325 -0.008,13.443c-0.008,1.495 0.088,3.028 -0.205,4.474c-0.568,2.799 -2.664,4.365 -5.319,4.269c-2.618,-0.095 -4.504,-1.855 -4.93,-4.689c-0.123,-0.816 -0.071,-1.66 -0.072,-2.492c-0.006,-8.153 -0.04,-16.306 0.004,-24.459c0.027,-5.034 1.789,-6.877 6.93,-6.889c23.295,-0.053 46.59,-0.02 69.885,-0.017c0.499,0 1.001,-0.016 1.496,0.035c2.47,0.256 4.602,1.123 5.299,3.756c0.657,2.478 -0.126,4.513 -2.214,6.143c-11.798,9.215 -23.529,18.517 -35.353,27.701c-3.404,2.644 -4.805,2.557 -8.445,-0.253c-7.373,-5.693 -14.662,-11.495 -21.996,-17.239c-1.384,-1.083 -2.817,-2.104 -5.072,-3.783" style="fill:#ed1c24;fill-rule:nonzero;"/><path d="M118.015,63.584c0,-4.503 -0.004,-8.129 0.002,-11.755c0.003,-1.665 -0.068,-3.338 0.061,-4.995c0.264,-3.402 1.897,-5.062 4.872,-5.131c3.163,-0.072 4.895,1.697 5.165,5.355c0.085,1.16 0.029,2.331 0.046,3.497c0.084,5.658 0.167,11.317 0.258,16.975c0.067,4.164 -1.805,6.35 -5.865,6.351c-23.986,0.003 -47.972,-0.065 -71.958,-0.119c-0.83,-0.002 -1.699,0.031 -2.482,-0.19c-2.321,-0.656 -3.72,-2.24 -3.783,-4.67c-0.069,-2.64 1.221,-4.516 3.883,-5.025c1.618,-0.31 3.314,-0.28 4.974,-0.281c19.323,-0.018 38.646,-0.012 57.97,-0.012l6.857,0" style="fill:#ed1c24;fill-rule:nonzero;"/><path d="M68.695,12.511c-0,2.426 -1.967,4.392 -4.392,4.392l-27.882,0c-2.426,0 -4.393,-1.966 -4.393,-4.392c-0,-2.426 1.967,-4.392 4.393,-4.392l27.882,0c2.425,0 4.392,1.966 4.392,4.392" style="fill:#ed1c24;fill-rule:nonzero;"/><path d="M36.558,68.558c-0,2.585 -1.693,4.68 -3.781,4.68l-24.001,-0c-2.088,-0 -3.781,-2.095 -3.781,-4.68c-0,-2.585 1.693,-4.68 3.781,-4.68l24.001,-0c2.088,-0 3.781,2.095 3.781,4.68" style="fill:#ed1c24;fill-rule:nonzero;"/><path d="M50.361,27.903c0,2.426 -1.967,4.392 -4.392,4.392l-27.882,0c-2.426,0 -4.393,-1.966 -4.393,-4.392c0,-2.426 1.967,-4.392 4.393,-4.392l27.882,0c2.425,0 4.392,1.966 4.392,4.392" style="fill:#ed1c24;fill-rule:nonzero;"/><path d="M54.361,42.702c0,2.426 -2.807,4.392 -6.269,4.392l-39.795,-0c-3.463,-0 -6.269,-1.966 -6.269,-4.392c0,-2.426 2.806,-4.392 6.269,-4.392l39.795,-0c3.462,-0 6.269,1.966 6.269,4.392" style="fill:#ed1c24;fill-rule:nonzero;"/></svg>